<svg width="23" height="23" viewBox="0 0 23 23" fill="none" xmlns="http://www.w3.org/2000/svg">
<path d="M11.2852 22.1738C5.2717 22.1738 0.396729 17.2988 0.396729 11.2852C0.396729 5.2717 5.2717 0.396729 11.2852 0.396729C17.2988 0.396729 22.1738 5.2717 22.1738 11.2852C22.1738 17.2988 17.2988 22.1738 11.2852 22.1738Z" fill="url(#paint0_radial)"/>
<path fill-rule="evenodd" clip-rule="evenodd" d="M0 11.2853C0 17.5179 5.05258 22.5705 11.2853 22.5705C17.5179 22.5705 22.5705 17.5179 22.5705 11.2853C22.5705 5.05258 17.5179 0 11.2853 0C5.05258 0 0 5.05258 0 11.2853ZM21.3281 11.2853C21.3281 16.8318 16.8318 21.3281 11.2853 21.3281C5.73873 21.3281 1.24242 16.8318 1.24242 11.2853C1.24242 5.73873 5.73873 1.24242 11.2853 1.24242C16.8318 1.24242 21.3281 5.73873 21.3281 11.2853Z" fill="#8DC641"/>
<path fill-rule="evenodd" clip-rule="evenodd" d="M0 11.2853C0 17.5179 5.05258 22.5705 11.2853 22.5705C17.5179 22.5705 22.5705 17.5179 22.5705 11.2853C22.5705 5.05258 17.5179 0 11.2853 0C5.05258 0 0 5.05258 0 11.2853ZM21.3281 11.2853C21.3281 16.8318 16.8318 21.3281 11.2853 21.3281C5.73873 21.3281 1.24242 16.8318 1.24242 11.2853C1.24242 5.73873 5.73873 1.24242 11.2853 1.24242C16.8318 1.24242 21.3281 5.73873 21.3281 11.2853Z" fill="url(#paint1_linear)"/>
<path fill-rule="evenodd" clip-rule="evenodd" d="M10.6147 14.4768V15.429H5.28992L5.29142 15.4018C5.34101 14.507 5.57399 13.856 6.01367 13.315C6.37529 12.8701 6.81316 12.5376 7.71047 11.9747C7.70787 11.9763 8.02805 11.7754 8.12036 11.7162C8.60342 11.4066 8.91341 11.1659 9.1586 10.8815C9.46613 10.525 9.62685 10.1339 9.62685 9.67577C9.62685 8.78644 8.99801 8.17029 8.08924 8.17029C7.03534 8.17029 6.4929 8.97335 6.46438 10.1797L6.46376 10.2049H5.51743L5.51624 10.1803L5.50566 9.96187C5.50566 8.34803 6.55625 7.27368 8.1342 7.27368C9.67834 7.27368 10.6834 8.21067 10.6834 9.65456C10.6834 10.3922 10.4196 10.9898 9.91145 11.5192C9.5285 11.9184 9.13903 12.1895 8.25062 12.7285L8.23828 12.7359C8.23533 12.7377 8.23237 12.7395 8.22938 12.7413C8.22435 12.7443 8.21924 12.7473 8.21403 12.7504C8.19556 12.7615 8.14765 12.79 8.09532 12.8211L8.09483 12.8214C8.02875 12.8606 7.95584 12.904 7.92648 12.9216C7.50209 13.1758 7.24504 13.3543 7.01806 13.5716C6.73919 13.8385 6.55484 14.1312 6.46623 14.4768H10.6147ZM17.2805 12.5217V13.4686H16.1748V15.429H15.2214V13.4686H11.6716V12.4467L15.2522 7.27368H16.1748V12.5217H17.2805ZM15.2214 12.5191H12.7085L15.2214 8.78516V12.5191Z" fill="white"/>
<path fill-rule="evenodd" clip-rule="evenodd" d="M10.6147 14.4768V15.429H5.28992L5.29142 15.4018C5.34101 14.507 5.57399 13.856 6.01367 13.315C6.37529 12.8701 6.81316 12.5376 7.71047 11.9747C7.70787 11.9763 8.02805 11.7754 8.12036 11.7162C8.60342 11.4066 8.91341 11.1659 9.1586 10.8815C9.46613 10.525 9.62685 10.1339 9.62685 9.67577C9.62685 8.78644 8.99801 8.17029 8.08924 8.17029C7.03534 8.17029 6.4929 8.97335 6.46438 10.1797L6.46376 10.2049H5.51743L5.51624 10.1803L5.50566 9.96187C5.50566 8.34803 6.55625 7.27368 8.1342 7.27368C9.67834 7.27368 10.6834 8.21067 10.6834 9.65456C10.6834 10.3922 10.4196 10.9898 9.91145 11.5192C9.5285 11.9184 9.13903 12.1895 8.25062 12.7285L8.23828 12.7359C8.23533 12.7377 8.23237 12.7395 8.22938 12.7413C8.22435 12.7443 8.21924 12.7473 8.21403 12.7504C8.19556 12.7615 8.14765 12.79 8.09532 12.8211L8.09483 12.8214C8.02875 12.8606 7.95584 12.904 7.92648 12.9216C7.50209 13.1758 7.24504 13.3543 7.01806 13.5716C6.73919 13.8385 6.55484 14.1312 6.46623 14.4768H10.6147ZM17.2805 12.5217V13.4686H16.1748V15.429H15.2214V13.4686H11.6716V12.4467L15.2522 7.27368H16.1748V12.5217H17.2805ZM15.2214 12.5191H12.7085L15.2214 8.78516V12.5191Z" fill="url(#paint2_radial)"/>
<defs>
<radialGradient id="paint0_radial" cx="0" cy="0" r="1" gradientUnits="userSpaceOnUse" gradientTransform="translate(5.5909 5.29691) rotate(45.5034) scale(23.6605)">
<stop stop-color="#444444"/>
<stop offset="1" stop-color="#111111"/>
</radialGradient>
<linearGradient id="paint1_linear" x1="-11.2853" y1="11.2853" x2="11.2853" y2="33.8558" gradientUnits="userSpaceOnUse">
<stop stop-color="#A3D167"/>
<stop offset="0.509396" stop-color="#8DC641"/>
<stop offset="1" stop-color="#709E34"/>
</linearGradient>
<radialGradient id="paint2_radial" cx="0" cy="0" r="1" gradientUnits="userSpaceOnUse" gradientTransform="translate(5.28992 7.27368) rotate(34.2215) scale(14.5012 13.4869)">
<stop stop-color="white" stop-opacity="0.5"/>
<stop offset="0.489407" stop-color="white" stop-opacity="0.391611"/>
<stop offset="1" stop-opacity="0.12"/>
</radialGradient>
</defs>
</svg>
