<svg width="43" height="19" viewBox="0 0 43 19" fill="none" xmlns="http://www.w3.org/2000/svg">
<path fill-rule="evenodd" clip-rule="evenodd" d="M7.92255 2.76885C7.42262 3.36768 6.62274 3.84 5.82286 3.77253C5.72287 2.96284 6.11448 2.10254 6.57275 1.57118C7.07268 0.955475 7.94755 0.516891 8.65578 0.483154C8.7391 1.32658 8.41415 2.15314 7.92255 2.76885ZM8.64741 3.93277C7.94272 3.89171 7.29973 4.14729 6.78037 4.35373C6.44615 4.48658 6.16312 4.59908 5.9478 4.59908C5.70617 4.59908 5.41146 4.48056 5.08057 4.3475C4.64699 4.17314 4.15129 3.97381 3.63147 3.98337C2.43998 4.00024 1.33181 4.68342 0.723565 5.77144C-0.526252 7.94749 0.398613 11.1694 1.60677 12.9406C2.19835 13.8177 2.90658 14.7793 3.83978 14.7455C4.25033 14.7298 4.54565 14.603 4.85129 14.4717C5.20316 14.3206 5.56869 14.1636 6.13944 14.1636C6.6904 14.1636 7.03995 14.3165 7.37549 14.4633C7.69454 14.6028 8.00093 14.7369 8.45577 14.7287C9.42229 14.7118 10.0305 13.8515 10.6221 12.9743C11.2605 12.0329 11.5411 11.1141 11.5837 10.9747L11.5886 10.9585C11.5876 10.9575 11.5797 10.9538 11.5658 10.9474C11.3524 10.8485 9.72123 10.0926 9.70558 8.06557C9.68988 6.36418 10.9994 5.50216 11.2055 5.36646C11.2181 5.3582 11.2265 5.35263 11.2304 5.34973C10.3972 4.10145 9.09734 3.9665 8.64741 3.93277ZM15.3382 14.6358V1.48673H20.2124C22.7287 1.48673 24.4868 3.24106 24.4868 5.80509C24.4868 8.36911 22.6954 10.1403 20.1458 10.1403H17.3545V14.6358H15.3382ZM17.3543 3.20735H19.6789C21.4287 3.20735 22.4285 4.15199 22.4285 5.81354C22.4285 7.4751 21.4287 8.42817 19.6706 8.42817H17.3543V3.20735ZM31.1444 13.0587C30.6112 14.0877 29.4363 14.7372 28.1698 14.7372C26.2951 14.7372 24.987 13.607 24.987 11.9032C24.987 10.2164 26.2535 9.24644 28.5948 9.10306L31.1111 8.95124V8.22589C31.1111 7.15474 30.4195 6.57277 29.1864 6.57277C28.1698 6.57277 27.4283 7.10413 27.2783 7.91382H25.4619C25.5202 6.2101 27.1033 4.97026 29.2447 4.97026C31.5527 4.97026 33.0525 6.19323 33.0525 8.09094V14.6359H31.1861V13.0587H31.1444ZM28.7112 13.1767C27.6363 13.1767 26.9531 12.6538 26.9531 11.8525C26.9531 11.026 27.6113 10.5452 28.8695 10.4693L31.1108 10.3259V11.0682C31.1108 12.2996 30.0776 13.1767 28.7112 13.1767ZM39.243 15.1504C38.4347 17.4529 37.5099 18.212 35.5435 18.212C35.3935 18.212 34.8936 18.1952 34.7769 18.1614V16.5842C34.9019 16.6011 35.2102 16.618 35.3685 16.618C36.2601 16.618 36.76 16.2384 37.0683 15.2516L37.2516 14.6696L33.8354 5.09672H35.9434L38.3181 12.8647H38.3598L40.7344 5.09672H42.7841L39.243 15.1504Z" fill="black"/>
</svg>
