<svg width="24" height="23" viewBox="0 0 24 23" fill="none" xmlns="http://www.w3.org/2000/svg">
<path d="M23.1707 14.2404C21.6628 20.2894 15.5344 23.9664 9.49412 22.4585C3.44504 20.9507 -0.232031 14.8224 1.27583 8.78226C2.78369 2.73331 8.90332 -0.943674 14.9524 0.564154C20.9927 2.06316 24.6786 8.19147 23.1707 14.2404Z" fill="url(#paint0_linear)"/>
<path d="M17.5963 10.1051C17.8167 8.60627 16.6794 7.79514 15.11 7.25733L15.6214 5.22069L14.387 4.91211L13.8933 6.89585C13.5671 6.8165 13.2321 6.73715 12.897 6.66661L13.3908 4.67406L12.1564 4.36548L11.6539 6.3933C11.3806 6.33158 11.1161 6.26987 10.8604 6.20815V6.19933L9.14997 5.77614L8.82376 7.09863C8.82376 7.09863 9.74069 7.31023 9.72305 7.31904C10.2256 7.44248 10.3138 7.77751 10.2961 8.04201L9.71424 10.3608C9.7495 10.3696 9.79359 10.3784 9.84649 10.4049C9.8024 10.396 9.75832 10.3872 9.71424 10.3696L8.90311 13.6141C8.84139 13.764 8.68269 13.9932 8.33885 13.9051C8.34766 13.9227 7.43955 13.6846 7.43955 13.6846L6.82239 15.1041L8.43583 15.5097C8.73559 15.589 9.02654 15.6596 9.31749 15.7389L8.80613 17.7932L10.0405 18.1018L10.5518 16.0651C10.8868 16.1533 11.2219 16.2415 11.5393 16.3208L11.0367 18.3486L12.2711 18.6572L12.7824 16.6029C14.8984 16.9997 16.4854 16.841 17.1466 14.9278C17.6845 13.3937 17.1202 12.5032 16.0093 11.9213C16.8292 11.7362 17.4376 11.1984 17.5963 10.1051ZM14.7662 14.0726C14.387 15.6067 11.795 14.7779 10.9574 14.5663L11.6363 11.842C12.4738 12.0536 15.1717 12.4679 14.7662 14.0726ZM15.1541 10.0786C14.8014 11.4805 12.6502 10.7663 11.9537 10.59L12.5708 8.12136C13.2673 8.29769 15.5156 8.6239 15.1541 10.0786Z" fill="white"/>
<defs>
<linearGradient id="paint0_linear" x1="12.217" y1="0.220758" x2="12.217" y2="22.7943" gradientUnits="userSpaceOnUse">
<stop stop-color="#F9AA4B"/>
<stop offset="1" stop-color="#F7931A"/>
</linearGradient>
</defs>
</svg>
