<svg width="24" height="23" viewBox="0 0 24 23" fill="none" xmlns="http://www.w3.org/2000/svg">
<path d="M12.2526 7.66309H10.6401V10.842H13.177V12.173H10.6401V15.3517H12.3316C12.7662 15.3517 15.8995 15.4008 15.8947 11.6533C15.8898 7.90583 12.8557 7.66309 12.2526 7.66309Z" fill="#C2A633"/>
<path d="M11.9816 0.226074C5.74882 0.226074 0.696289 5.2786 0.696289 11.5113C0.696289 17.7441 5.74882 22.7966 11.9816 22.7966C18.2143 22.7966 23.2668 17.7441 23.2668 11.5113C23.2668 5.2786 18.2143 0.226074 11.9816 0.226074ZM12.425 17.6065H8.33799V12.1731H6.89732V10.8421H8.33788V5.40838H11.8456C12.6754 5.40838 18.1716 5.23605 18.1716 11.6094C18.1716 18.0882 12.4251 17.6065 12.4251 17.6065H12.425Z" fill="#C2A633"/>
</svg>
