<svg width="53" height="21" viewBox="0 0 53 21" fill="none" xmlns="http://www.w3.org/2000/svg">
<path fill-rule="evenodd" clip-rule="evenodd" d="M24.6888 16.0135V10.119V10.1179H27.8738C29.1868 10.1187 30.2904 9.70556 31.1844 8.87859C32.0879 8.09374 32.593 6.9653 32.5673 5.78908C32.5852 4.61939 32.081 3.49931 31.1844 2.71699C30.2982 1.88549 29.1064 1.43181 27.8738 1.45679H22.7611V16.0135H24.6888ZM24.6889 8.33037V3.24894V3.24778H27.9217C28.6422 3.22813 29.3368 3.50939 29.829 4.02015C30.3243 4.48726 30.6038 5.12886 30.6038 5.79895C30.6038 6.46904 30.3243 7.11063 29.829 7.57774C29.3307 8.07776 28.6383 8.35098 27.9217 8.33037H24.6889Z" fill="#5F6368"/>
<path fill-rule="evenodd" clip-rule="evenodd" d="M40.3833 6.8368C39.5588 6.09811 38.4341 5.72876 37.0092 5.72876C35.1789 5.72876 33.7968 6.37918 32.8628 7.68003L34.5607 8.71723C35.1881 7.83606 36.0402 7.39547 37.117 7.39547C37.8035 7.38768 38.4679 7.63111 38.9777 8.07726C39.4859 8.48489 39.7783 9.09263 39.7739 9.73235V10.1598C39.0331 9.75326 38.0904 9.55 36.9458 9.55C35.6047 9.55155 34.5327 9.85663 33.7297 10.4652C32.9267 11.0739 32.5252 11.8935 32.5252 12.9241C32.5077 13.8625 32.9273 14.7586 33.6674 15.3632C34.429 16.0136 35.3753 16.3388 36.5063 16.3388C37.8314 16.3388 38.893 15.7697 39.6913 14.6314H39.7751V16.0136H41.619V9.87521C41.6198 8.5883 41.2079 7.5755 40.3833 6.8368ZM35.1546 14.1843C34.7508 13.9019 34.5126 13.4476 34.5153 12.9648C34.5153 12.4224 34.7775 11.9705 35.3055 11.5989C35.8284 11.2326 36.4813 11.0495 37.2644 11.0495C38.3396 11.0495 39.1777 11.2818 39.7788 11.7464C39.7788 12.5315 39.4595 13.2156 38.8209 13.7987C38.2457 14.3567 37.466 14.6708 36.6525 14.6721C36.1102 14.682 35.581 14.5096 35.1546 14.1843Z" fill="#5F6368"/>
<path fill-rule="evenodd" clip-rule="evenodd" d="M52.2039 6.05371L45.767 20.4037H43.777L46.1657 15.3826L41.9331 6.05371H44.0285L47.0877 13.2084H47.1296L50.105 6.05371L52.2039 6.05371Z" fill="#5F6368"/>
<path fill-rule="evenodd" clip-rule="evenodd" d="M16.8988 8.84834C16.8995 8.27847 16.8498 7.70959 16.7503 7.14795H8.62036V10.3687H13.2768C13.0843 11.4082 12.4623 12.3262 11.555 12.91V15.0007H14.3341C15.9613 13.5453 16.8988 11.3931 16.8988 8.84834Z" fill="#4285F4"/>
<path fill-rule="evenodd" clip-rule="evenodd" d="M8.62034 17.0204C10.9468 17.0204 12.9056 16.2794 14.3341 15.0018L11.555 12.9111C10.7815 13.4198 9.78535 13.7102 8.62034 13.7102C6.37174 13.7102 4.46317 12.2398 3.78069 10.2583H0.917847V12.4128C2.38118 15.2375 5.36145 17.0202 8.62034 17.0204Z" fill="#34A853"/>
<path fill-rule="evenodd" clip-rule="evenodd" d="M3.78081 10.2586C3.42001 9.22032 3.42001 8.09591 3.78081 7.05761V4.90308H0.917968C-0.305989 7.26566 -0.305989 10.0506 0.917968 12.4131L3.78081 10.2586Z" fill="#FBBC04"/>
<path fill-rule="evenodd" clip-rule="evenodd" d="M8.62034 3.60566C9.84976 3.58618 11.0377 4.03678 11.9274 4.86005L14.3879 2.47323C12.8277 1.05168 10.7607 0.27122 8.62034 0.295471C5.36144 0.295615 2.38118 2.07838 0.917847 4.90303L3.78069 7.05756C4.46317 5.07609 6.37173 3.60566 8.62034 3.60566Z" fill="#EA4335"/>
</svg>
