<svg width="72" height="16" viewBox="0 0 72 16" fill="none" xmlns="http://www.w3.org/2000/svg">
<path d="M13.5931 0.210449C9.42514 0.210449 6.10974 3.57323 6.10974 7.69381C6.10974 11.8617 9.47253 15.1772 13.5931 15.1772C17.7137 15.1772 21.0765 11.8144 21.0765 7.69381C21.1238 3.57323 17.7137 0.210449 13.5931 0.210449ZM13.5931 10.4882C12.0775 10.4882 10.7987 9.20943 10.7987 7.69381C10.7987 6.17819 12.0775 4.89941 13.5931 4.89941C15.1087 4.89941 16.3875 6.17819 16.3875 7.69381C16.3875 9.20943 15.1561 10.4882 13.5931 10.4882Z" fill="#8B3FFD"/>
<path d="M6.10984 2.38916V13.2827H3.41014L0 2.38916H6.10984Z" fill="#8B3FFD"/>
<path d="M69.2448 4.33105L67.5871 8.40428C67.5398 8.45164 67.5398 8.54634 67.5398 8.59373L67.4922 8.68844L67.4449 8.59373C67.4449 8.54634 67.3976 8.45164 67.3976 8.40428L65.7399 4.33105H63.6086L66.4029 11.2934L65.2191 13.9457H67.3503L71.2815 4.33105H69.2448Z" fill="black"/>
<path d="M53.5202 4.71008C53.1413 4.42589 52.6677 4.23644 52.0993 4.18909C51.1522 4.09435 50.2524 4.42589 49.6367 5.04162V4.28383H47.6946V11.2462H49.6367V7.59923C49.6367 6.79405 49.7785 6.55724 49.9207 6.36779C50.1575 5.9889 50.5838 5.79945 51.1049 5.79945C51.6257 5.79945 52.0993 6.03625 52.3364 6.41515C52.4782 6.69934 52.5255 7.07824 52.5255 7.26768C52.5255 7.88342 52.5255 11.2462 52.5255 11.2462H54.4676V7.03088C54.4676 5.94151 54.136 5.18372 53.5202 4.71008Z" fill="black"/>
<path d="M44.0001 4.37821C43.053 4.04667 42.0111 4.09405 41.0637 4.52031C40.4479 4.80449 39.8798 5.2781 39.5481 5.89383C39.2165 6.41483 39.0746 7.07791 39.0746 7.78835C39.0746 8.49879 39.2165 9.16188 39.5481 9.68287C39.8798 10.2039 40.306 10.6775 40.8742 10.9617C41.4426 11.2459 42.1056 11.4353 42.7214 11.4353C43.053 11.4353 43.3844 11.3879 43.7161 11.2932C44.0001 11.1985 44.2845 11.1038 44.5686 10.9617C45.137 10.6301 45.6106 10.2039 45.8949 9.68287C46.2263 9.16188 46.3685 8.49879 46.3685 7.78835C46.4158 6.22538 45.516 4.8992 44.0001 4.37821ZM44.5686 7.88309C44.5213 8.49879 44.3318 9.01978 43.9528 9.35133C43.6688 9.58816 43.2425 9.73026 42.7214 9.77761C42.2005 9.77761 41.8216 9.63552 41.4899 9.35133C41.1113 9.01978 40.9218 8.49879 40.8742 7.88309C40.8269 7.17265 41.1113 6.60427 41.6321 6.22538C41.9162 6.03593 42.2951 5.89383 42.6741 5.89383C43.1003 5.89383 43.432 6.03593 43.7634 6.22538C44.3318 6.55692 44.6159 7.17265 44.5686 7.88309Z" fill="black"/>
<path d="M36.8483 4.70996C36.4693 4.4258 35.9958 4.23635 35.4274 4.18896C35.3328 4.18896 35.1906 4.18896 35.096 4.18896C34.3381 4.18896 33.675 4.52051 33.1066 5.18359L33.012 5.32569H32.8225C32.6804 5.08888 32.4909 4.89944 32.3014 4.75734C31.9224 4.47315 31.4489 4.2837 30.8805 4.23635C29.9807 4.14161 29.2702 4.4258 28.6545 5.08888V4.37844H26.7126V11.3408H28.6545V7.69384V7.5991C28.6545 6.84131 28.7493 6.65186 28.8913 6.41506C29.1282 6.03613 29.5544 5.79933 30.028 5.84668C30.5018 5.84668 30.9281 6.08351 31.1648 6.46241C31.3543 6.74657 31.3543 7.07811 31.3543 7.40966V11.2934H33.2961V7.55175C33.2961 6.84131 33.3907 6.60451 33.5329 6.36767C33.7696 5.98877 34.1959 5.79933 34.6697 5.79933C35.1433 5.79933 35.5222 6.03613 35.759 6.41506C35.9012 6.65186 35.9485 6.93605 35.9485 7.1255C35.9485 7.22021 35.9485 7.31495 35.9485 7.3623V11.2461H37.8903V6.9834C37.8903 6.60451 37.843 6.22558 37.7481 5.89403C37.5589 5.42043 37.2745 4.99415 36.8483 4.70996Z" fill="black"/>
<path d="M61.7615 9.16214C61.4774 9.44632 60.8141 9.96732 59.9143 10.0147C59.1564 10.062 58.5883 9.82522 58.162 9.39897C57.9725 9.20949 57.8303 8.92533 57.7358 8.64114H63.0876V8.59379C63.1352 8.3096 63.1824 8.0728 63.1824 7.78861C63.1824 7.55181 63.1352 7.22026 63.0403 6.79398C62.8035 5.9888 62.3299 5.3731 61.7142 4.89946C61.0036 4.37847 60.3406 4.23638 60.1511 4.23638C58.7777 3.99957 57.2146 4.61527 56.4094 5.89409C55.841 6.79398 55.8886 7.69387 55.8886 7.97806C55.8886 8.3096 55.9358 9.35158 56.7884 10.2989C57.783 11.3882 59.1564 11.4356 59.5826 11.4829C61.4774 11.5303 62.7562 10.3462 63.0403 10.1094L61.7615 9.16214ZM58.4461 6.22563C58.7301 6.03619 59.0618 5.89409 59.4881 5.89409C59.9143 5.89409 60.246 6.03619 60.5773 6.22563C60.8617 6.46244 61.0985 6.74663 61.2404 7.07817H57.8303C57.8776 6.74663 58.1144 6.41508 58.4461 6.22563Z" fill="black"/>
</svg>
