<svg width="27" height="21" viewBox="0 0 27 21" fill="none" xmlns="http://www.w3.org/2000/svg">
<path d="M16.8749 14.5989H9.82153V2.00708H16.8749V14.5989Z" fill="#6C6BBD"/>
<path d="M10.2692 8.30295C10.2692 5.74865 11.4732 3.47335 13.348 2.00706C11.977 0.934833 10.2467 0.294857 8.36624 0.294857C3.91446 0.294857 0.305786 3.88014 0.305786 8.30295C0.305786 12.7257 3.91446 16.311 8.36624 16.311C10.2467 16.311 11.977 15.6711 13.348 14.5988C11.4732 13.1325 10.2692 10.8572 10.2692 8.30295Z" fill="#EB001B"/>
<path d="M26.3907 8.30295C26.3907 12.7257 22.782 16.311 18.3303 16.311C16.4498 16.311 14.7195 15.6711 13.348 14.5988C15.2233 13.1325 16.4273 10.8572 16.4273 8.30295C16.4273 5.74865 15.2233 3.47335 13.348 2.00706C14.7195 0.934833 16.4498 0.294857 18.3303 0.294857C22.782 0.294857 26.3907 3.88014 26.3907 8.30295Z" fill="#0099DF"/>
<path d="M19.2613 18.1566C19.3551 18.1566 19.4899 18.1744 19.5929 18.2146L19.4494 18.6505C19.351 18.6102 19.2526 18.597 19.1583 18.597C18.8538 18.597 18.7016 18.7925 18.7016 19.1438V20.3362H18.2357V18.2101H18.697V18.4682C18.8179 18.2813 18.9927 18.1566 19.2613 18.1566Z" fill="#231F20"/>
<path d="M17.5403 18.6326H16.7792V19.5934C16.7792 19.8067 16.8551 19.9493 17.0883 19.9493C17.2092 19.9493 17.3615 19.909 17.4998 19.8291L17.6341 20.2247C17.4865 20.327 17.2538 20.3896 17.0524 20.3896C16.5014 20.3896 16.3093 20.0959 16.3093 19.602V18.6326H15.8746V18.2101H16.3093V17.565H16.7792V18.2101H17.5403V18.6326Z" fill="#231F20"/>
<path fill-rule="evenodd" clip-rule="evenodd" d="M12.1576 18.1567C12.7577 18.1567 13.1698 18.6104 13.1744 19.2733C13.1744 19.3349 13.1699 19.392 13.1653 19.4495L13.1652 19.4509H11.5759C11.643 19.8333 11.9162 19.9713 12.216 19.9713C12.4308 19.9713 12.6593 19.8913 12.8382 19.7488L13.0668 20.0914C12.8069 20.3093 12.5117 20.3893 12.1894 20.3893C11.5487 20.3893 11.092 19.9489 11.092 19.2733C11.092 18.6104 11.5308 18.1567 12.1576 18.1567ZM12.1489 18.5701C11.8173 18.5701 11.6297 18.7793 11.58 19.0863H12.6906C12.6414 18.7569 12.4487 18.5701 12.1489 18.5701Z" fill="#231F20"/>
<path d="M15.2208 18.7528C15.0911 18.6724 14.8271 18.57 14.554 18.57C14.2987 18.57 14.1465 18.6637 14.1465 18.8195C14.1465 18.9615 14.3074 19.0018 14.5089 19.0282L14.7282 19.0593C15.1941 19.1265 15.476 19.322 15.476 19.6957C15.476 20.1005 15.1177 20.3896 14.5002 20.3896C14.1506 20.3896 13.8282 20.3006 13.573 20.1137L13.7924 19.7532C13.9492 19.8734 14.1824 19.9757 14.5048 19.9757C14.8225 19.9757 14.9927 19.8826 14.9927 19.7176C14.9927 19.598 14.8717 19.5307 14.6165 19.4956L14.3971 19.4646C13.9179 19.3974 13.6581 19.184 13.6581 18.8373C13.6581 18.4147 14.0076 18.1566 14.5494 18.1566C14.8897 18.1566 15.1987 18.2325 15.4222 18.3791L15.2208 18.7528Z" fill="#231F20"/>
<path fill-rule="evenodd" clip-rule="evenodd" d="M21.4246 18.2428C21.2832 18.1852 21.1294 18.1567 20.9634 18.1567C20.7973 18.1567 20.6435 18.1852 20.5021 18.2428C20.3606 18.2998 20.2392 18.3787 20.1367 18.479C20.0342 18.5793 19.9537 18.6979 19.8953 18.8344C19.8368 18.9713 19.8076 19.12 19.8076 19.2804C19.8076 19.4408 19.8368 19.5894 19.8953 19.7264C19.9537 19.8628 20.0342 19.982 20.1367 20.0823C20.2392 20.1826 20.3606 20.261 20.5021 20.3185C20.6435 20.3755 20.7973 20.404 20.9634 20.404C21.1294 20.404 21.2832 20.3755 21.4246 20.3185C21.5661 20.261 21.6886 20.1826 21.7916 20.0823C21.8951 19.982 21.9756 19.8628 22.034 19.7264C22.0924 19.5894 22.1217 19.4408 22.1217 19.2804C22.1217 19.12 22.0924 18.9713 22.034 18.8344C21.9756 18.6979 21.8951 18.5793 21.7916 18.479C21.6886 18.3787 21.5661 18.2998 21.4246 18.2428ZM20.6962 18.6461C20.7788 18.613 20.8674 18.5962 20.9633 18.5962C21.0591 18.5962 21.1483 18.613 21.2303 18.6461C21.3128 18.6797 21.3846 18.7265 21.4445 18.7866C21.5055 18.8467 21.5527 18.919 21.5875 19.003C21.6219 19.087 21.6388 19.1796 21.6388 19.2805C21.6388 19.3818 21.6219 19.4739 21.5875 19.5579C21.5527 19.6419 21.5055 19.7142 21.4445 19.7743C21.3846 19.8344 21.3128 19.8812 21.2303 19.9148C21.1483 19.9484 21.0591 19.9647 20.9633 19.9647C20.8674 19.9647 20.7788 19.9484 20.6962 19.9148C20.6142 19.8812 20.543 19.8344 20.483 19.7743C20.4231 19.7142 20.3759 19.6419 20.3416 19.5579C20.3072 19.4739 20.2903 19.3818 20.2903 19.2805C20.2903 19.1796 20.3072 19.087 20.3416 19.003C20.3759 18.919 20.4231 18.8467 20.483 18.7866C20.543 18.7265 20.6142 18.6797 20.6962 18.6461Z" fill="#231F20"/>
<path fill-rule="evenodd" clip-rule="evenodd" d="M10.5925 18.2102V19.2733V20.3363H10.1271V20.0782C9.97903 20.2696 9.75557 20.3898 9.45113 20.3898C8.85097 20.3898 8.38098 19.9224 8.38098 19.2733C8.38098 18.6236 8.85097 18.1567 9.45113 18.1567C9.75557 18.1567 9.97903 18.2769 10.1271 18.4683V18.2102H10.5925ZM9.50892 18.5926C9.10608 18.5926 8.85956 18.8996 8.85956 19.2733C8.85956 19.647 9.10608 19.9535 9.50892 19.9535C9.89383 19.9535 10.1537 19.6602 10.1537 19.2733C10.1537 18.8864 9.89383 18.5926 9.50892 18.5926Z" fill="#231F20"/>
<path d="M7.96912 20.3362V19.0018C7.96912 18.4992 7.64675 18.1612 7.12756 18.1566C6.85439 18.152 6.57199 18.2365 6.37518 18.5349C6.22757 18.2992 5.99437 18.1566 5.66738 18.1566C5.43931 18.1566 5.21534 18.2233 5.04057 18.4723V18.2101H4.5752V20.3362H5.04518V19.1575C5.04518 18.7884 5.25121 18.5924 5.56898 18.5924C5.87803 18.5924 6.03486 18.7925 6.03486 19.153V20.3362H6.50484V19.1575C6.50484 18.7884 6.7201 18.5924 7.02864 18.5924C7.34692 18.5924 7.49914 18.7925 7.49914 19.153V20.3362H7.96912V20.3362Z" fill="#231F20"/>
</svg>
