<svg width="27" height="21" viewBox="0 0 27 21" fill="none" xmlns="http://www.w3.org/2000/svg">
<path fill-rule="evenodd" clip-rule="evenodd" d="M7.68629 18.2233V19.2871V20.3508H7.22062V20.0925C7.07292 20.2841 6.8488 20.4043 6.54417 20.4043C5.94361 20.4043 5.47281 19.9371 5.47281 19.2871C5.47281 18.6375 5.94361 18.1698 6.54417 18.1698C6.8488 18.1698 7.07292 18.29 7.22062 18.4816V18.2233H7.68629ZM6.60214 18.606C6.19904 18.606 5.95235 18.9132 5.95235 19.2871C5.95235 19.6611 6.19904 19.9683 6.60214 19.9683C6.98729 19.9683 7.24731 19.6743 7.24731 19.2871C7.24731 18.9 6.98729 18.606 6.60214 18.606ZM23.4227 19.2871C23.4227 18.9132 23.6694 18.606 24.0725 18.606C24.4582 18.606 24.7177 18.9 24.7177 19.2871C24.7177 19.6743 24.4582 19.9683 24.0725 19.9683C23.6694 19.9683 23.4227 19.6611 23.4227 19.2871ZM25.1572 17.3689V19.2871V20.3508H24.691V20.0925C24.5433 20.2841 24.3192 20.4043 24.0146 20.4043C23.414 20.4043 22.9432 19.9371 22.9432 19.2871C22.9432 18.6375 23.414 18.1698 24.0146 18.1698C24.3192 18.1698 24.5433 18.29 24.691 18.4816V17.3689H25.1572ZM13.4666 18.584C13.7667 18.584 13.9595 18.771 14.0087 19.1001H12.8974C12.9471 18.7929 13.1348 18.584 13.4666 18.584ZM12.409 19.2871C12.409 18.6237 12.848 18.1698 13.4757 18.1698C14.0758 18.1698 14.4881 18.6237 14.4927 19.2871C14.4927 19.3492 14.4881 19.4073 14.4835 19.4649H12.8931C12.9603 19.848 13.2337 19.986 13.5337 19.986C13.7486 19.986 13.9773 19.9055 14.1568 19.7634L14.385 20.1063C14.125 20.3243 13.8296 20.4043 13.507 20.4043C12.866 20.4043 12.409 19.9636 12.409 19.2871ZM19.0989 19.2871C19.0989 18.9132 19.3456 18.606 19.7487 18.606C20.1338 18.606 20.3938 18.9 20.3938 19.2871C20.3938 19.6743 20.1338 19.9683 19.7487 19.9683C19.3456 19.9683 19.0989 19.6611 19.0989 19.2871ZM20.8327 18.2233V19.2871V20.3508H20.367V20.0925C20.2188 20.2841 19.9952 20.4043 19.6906 20.4043C19.09 20.4043 18.6192 19.9371 18.6192 19.2871C18.6192 18.6375 19.09 18.1698 19.6906 18.1698C19.9952 18.1698 20.2188 18.29 20.367 18.4816V18.2233H20.8327ZM16.4689 19.2871C16.4689 19.9325 16.9213 20.4043 17.6116 20.4043C17.9341 20.4043 18.149 20.333 18.3819 20.1506L18.1583 19.7766C17.9834 19.9015 17.7998 19.9682 17.5977 19.9682C17.2259 19.9636 16.9525 19.6967 16.9525 19.2871C16.9525 18.8774 17.2259 18.6105 17.5977 18.6059C17.7998 18.6059 17.9834 18.6726 18.1583 18.7975L18.3819 18.4235C18.149 18.2411 17.9341 18.1698 17.6116 18.1698C16.9213 18.1698 16.4689 18.6416 16.4689 19.2871ZM21.9083 18.4816C22.0293 18.2947 22.2042 18.1699 22.4729 18.1699C22.5673 18.1699 22.7017 18.1877 22.8048 18.2279L22.6612 18.664C22.5627 18.6238 22.4642 18.6105 22.3699 18.6105C22.0652 18.6105 21.9129 18.8062 21.9129 19.1582V20.3508H21.4467V18.2233H21.9083V18.4816ZM9.98925 18.3924C9.76514 18.2457 9.4564 18.1698 9.11586 18.1698C8.57326 18.1698 8.22401 18.4281 8.22401 18.851C8.22401 19.1979 8.48402 19.4119 8.96303 19.4786L9.18305 19.5097C9.43845 19.5453 9.55897 19.6121 9.55897 19.7323C9.55897 19.8969 9.3887 19.9906 9.07073 19.9906C8.74814 19.9906 8.51531 19.8882 8.35837 19.768L8.13887 20.1282C8.39427 20.3151 8.71686 20.4043 9.06611 20.4043C9.68462 20.4043 10.0431 20.1149 10.0431 19.7099C10.0431 19.336 9.76103 19.1403 9.29485 19.0736L9.07535 19.042C8.87379 19.0155 8.71224 18.9758 8.71224 18.8331C8.71224 18.6772 8.86456 18.584 9.11996 18.584C9.39332 18.584 9.65795 18.6864 9.7877 18.7664L9.98925 18.3924ZM15.4339 18.4816C15.5544 18.2947 15.7293 18.1699 15.998 18.1699C16.0924 18.1699 16.2267 18.1877 16.3298 18.2279L16.1862 18.664C16.0878 18.6238 15.9893 18.6105 15.8949 18.6105C15.5903 18.6105 15.438 18.8062 15.438 19.1582V20.3508H14.9723V18.2233H15.4339V18.4816ZM12.0239 18.2233H11.2623V17.5778H10.7915V18.2233H10.3571V18.6462H10.7915V19.6167C10.7915 20.1103 10.9843 20.4043 11.5351 20.4043C11.7372 20.4043 11.97 20.3421 12.1177 20.2397L11.9833 19.8434C11.8444 19.9234 11.692 19.9636 11.571 19.9636C11.3382 19.9636 11.2623 19.821 11.2623 19.6075V18.6462H12.0239V18.2233ZM5.06095 19.0155V20.3508H4.59015V19.1669C4.59015 18.8062 4.43783 18.6059 4.11986 18.6059C3.81061 18.6059 3.59572 18.8021 3.59572 19.1714V20.3508H3.12492V19.1669C3.12492 18.8062 2.9685 18.6059 2.65925 18.6059C2.34076 18.6059 2.13459 18.8021 2.13459 19.1714V20.3508H1.66431L1.66431 18.2233H2.13049L2.13049 18.4857C2.30538 18.2366 2.52898 18.1698 2.75771 18.1698C3.08492 18.1698 3.31775 18.3125 3.46545 18.5484C3.6629 18.2498 3.94497 18.1653 4.21833 18.1698C4.73836 18.1744 5.06095 18.5127 5.06095 19.0155Z" fill="#231F20"/>
<path d="M16.8929 14.6082H9.83496V2.0083H16.8929V14.6082Z" fill="#FF5F00"/>
<path d="M10.2828 8.3085C10.2828 5.75255 11.4875 3.47577 13.3635 2.00853C11.9916 0.935612 10.2602 0.295223 8.37854 0.295223C3.92388 0.295223 0.312866 3.88283 0.312866 8.3085C0.312866 12.7342 3.92388 16.3218 8.37854 16.3218C10.2602 16.3218 11.9916 15.6814 13.3635 14.6085C11.4875 13.1412 10.2828 10.8645 10.2828 8.3085Z" fill="#EB001B"/>
<path d="M26.4145 8.3085C26.4145 12.7342 22.8035 16.3218 18.3489 16.3218C16.4672 16.3218 14.7358 15.6814 13.3634 14.6085C15.2399 13.1412 16.4446 10.8645 16.4446 8.3085C16.4446 5.75255 15.2399 3.47577 13.3634 2.00853C14.7358 0.935612 16.4672 0.295223 18.3489 0.295223C22.8035 0.295223 26.4145 3.88283 26.4145 8.3085Z" fill="#F79E1B"/>
</svg>
