<svg width="47" height="13" viewBox="0 0 47 13" fill="none" xmlns="http://www.w3.org/2000/svg">
<path fill-rule="evenodd" clip-rule="evenodd" d="M4.92363 0.118112C4.94353 0.117993 4.96533 0.117622 4.98885 0.117221C5.45154 0.109337 6.58227 0.0900698 7.07497 1.75491C7.42373 2.93337 7.97928 4.86375 8.74163 7.54605H9.0521C9.86966 4.71818 10.4313 2.7878 10.737 1.75491C11.2288 0.0929822 12.4142 0.109275 12.9891 0.117175C13.0257 0.117678 13.0598 0.118147 13.0911 0.118147L17.1272 0.118152V12.6884H13.0135V5.28055H12.7376L10.4444 12.6884H7.34933L5.05612 5.27506H4.78026V12.6884H0.666504V0.118152L4.92363 0.118112ZM23.0347 0.118343V7.53173H23.3629L26.1524 1.43575C26.6939 0.222638 27.8479 0.118343 27.8479 0.118343H31.8288V12.6886H27.6292V5.27526H27.301L24.5662 11.3712C24.0247 12.5789 22.8159 12.6886 22.8159 12.6886H18.835V0.118343H23.0347ZM41.8819 8.94405C43.9187 8.94405 45.7584 7.75376 46.3442 6.09174H33.4841V12.6885H37.4778V8.94405H41.8819Z" fill="#40A548"/>
<path d="M42.075 0.118408H33.2751C33.4846 2.91699 35.8918 5.31275 38.3837 5.31275H46.6222C47.0976 2.9868 45.4609 0.118408 42.075 0.118408Z" fill="#1291D0"/>
</svg>
