<svg width="21" height="21" viewBox="0 0 21 21" fill="none" xmlns="http://www.w3.org/2000/svg">
<path d="M15.9829 12.9391C16.3168 13.0823 16.46 13.5594 16.46 13.798C16.5077 14.1797 16.4123 14.3705 16.2691 14.3705C16.126 14.3705 15.9351 14.2274 15.7443 13.8934C15.5534 13.5594 15.458 13.2254 15.5534 13.0346C15.6966 12.9391 15.8397 12.8914 15.9829 12.9391Z" fill="#F28A1A"/>
<path d="M14.0265 14.4182C14.2174 14.4182 14.456 14.5136 14.6945 14.7045C15.0762 15.0385 15.2194 15.4202 15.0285 15.7065C14.9331 15.8496 14.6945 15.945 14.5037 15.945C14.2651 15.945 14.0265 15.8496 13.8834 15.7065C13.5017 15.3725 13.4063 14.8953 13.6448 14.6091C13.6925 14.5136 13.8357 14.4182 14.0265 14.4182Z" fill="#F28A1A"/>
<path d="M9.49383 18.1878C4.53162 18.1878 0.523682 14.1798 0.523682 9.26532C0.523682 4.35082 4.53162 0.295166 9.49383 0.295166C14.456 0.295166 18.464 4.30311 18.464 9.26532C18.464 10.9353 17.9868 12.5098 17.2234 13.8458C17.1757 13.8935 17.128 13.8935 17.128 13.7981C16.794 11.6033 15.458 10.4104 13.5495 10.0287C13.3586 9.98102 13.3586 9.88559 13.5972 9.88559C14.2175 9.83788 15.0286 9.83788 15.5057 9.93331C15.5535 9.69474 15.5535 9.45617 15.5535 9.26532C15.5535 6.02079 12.8815 3.34883 9.63697 3.34883C6.39245 3.34883 3.72049 6.02079 3.72049 9.26532C3.72049 12.5098 6.39245 15.1818 9.63697 15.1818H9.92326C9.82783 14.657 9.78011 14.1321 9.82783 13.5595C9.82783 13.1778 9.92325 13.1301 10.0664 13.4164C10.8775 14.8478 12.0704 16.0884 14.3606 16.6132C16.2214 17.0426 18.0823 17.5198 20.134 20.0486C20.3248 20.2872 20.0385 20.5257 19.8477 20.3349C17.796 18.5218 15.9352 17.9015 14.2175 17.9015C12.0704 17.9492 10.7821 18.1878 9.49383 18.1878Z" fill="#F28A1A"/>
</svg>
