<svg width="42" height="13" viewBox="0 0 42 13" fill="none" xmlns="http://www.w3.org/2000/svg">
<path d="M18.0224 12.5073H14.6697L16.7667 0.33667H20.1193L18.0224 12.5073Z" fill="#15195A"/>
<path d="M30.1766 0.63412C29.5153 0.387864 28.4664 0.115967 27.1694 0.115967C23.8585 0.115967 21.527 1.77316 21.5127 4.14245C21.4852 5.89051 23.182 6.86142 24.4511 7.44428C25.7482 8.03987 26.1891 8.42861 26.1891 8.9595C26.1759 9.77485 25.141 10.1507 24.1757 10.1507C22.8371 10.1507 22.1199 9.95691 21.0299 9.50329L20.5884 9.30883L20.1193 12.0409C20.9056 12.3771 22.3544 12.6755 23.8585 12.6886C27.3764 12.6886 29.6667 11.0571 29.6939 8.53221C29.7073 7.14674 28.8113 6.08514 26.8796 5.21765C25.7069 4.66077 24.9888 4.28528 24.9888 3.7155C25.0025 3.19752 25.5962 2.66698 26.9199 2.66698C28.0099 2.64099 28.8107 2.88691 29.4174 3.13299L29.7206 3.26223L30.1766 0.63412Z" fill="#15195A"/>
<path fill-rule="evenodd" clip-rule="evenodd" d="M36.1787 0.33667H38.7721L41.4769 12.5072H38.3726C38.3726 12.5072 38.0688 11.1088 37.9726 10.6815H33.6679C33.5434 11.005 32.9642 12.5072 32.9642 12.5072H29.4463L34.4264 1.34647C34.7714 0.556597 35.379 0.33667 36.1787 0.33667ZM35.9722 4.79047C35.9722 4.79047 34.9098 7.49653 34.6337 8.19572H37.4204C37.2826 7.58722 36.6477 4.67397 36.6477 4.67397L36.4134 3.62527C36.3147 3.89531 36.172 4.26658 36.0757 4.51699C36.0105 4.68675 35.9666 4.80097 35.9722 4.79047Z" fill="#15195A"/>
<path fill-rule="evenodd" clip-rule="evenodd" d="M0.143198 0.33667H5.53745C6.26861 0.362311 6.8619 0.582409 7.05496 1.35972L8.22761 6.95323C8.22689 6.95137 8.22616 6.94952 8.22544 6.94767C8.22596 6.94936 8.22649 6.95104 8.22702 6.95272L8.58581 8.6359L11.8693 0.336676H15.4145L10.1446 12.4944H6.59913L3.61071 1.9188C2.57983 1.3532 1.40335 0.898291 0.0880127 0.582582L0.143198 0.33667Z" fill="#15195A"/>
</svg>
