<svg width="15" height="14" viewBox="0 0 15 14" fill="none" xmlns="http://www.w3.org/2000/svg">
<path d="M11.8191 3.18182H11.2999V2.66255C11.299 1.95665 11.0182 1.27991 10.5191 0.780772C10.02 0.28163 9.34322 0.000842053 8.63733 0H3.14423C2.43834 0.000842053 1.7616 0.28163 1.26246 0.780772C0.763319 1.27991 0.482532 1.95665 0.481689 2.66255V11.3375C0.482532 12.0433 0.763319 12.7201 1.26246 13.2192C1.7616 13.7184 2.43834 13.9992 3.14423 14H11.8191C12.525 13.9992 13.2018 13.7184 13.7009 13.2192C14.2001 12.7201 14.4808 12.0433 14.4817 11.3375V5.84436C14.4808 5.13847 14.2001 4.46173 13.7009 3.96259C13.2018 3.46345 12.525 3.18266 11.8191 3.18182ZM13.209 11.3375C13.2086 11.706 13.0621 12.0593 12.8015 12.3198C12.541 12.5804 12.1876 12.7269 11.8191 12.7273H3.14423C2.77574 12.7269 2.42243 12.5804 2.16186 12.3198C1.90129 12.0593 1.75475 11.706 1.75442 11.3375V2.66255C1.75475 2.29405 1.90129 1.94074 2.16186 1.68017C2.42243 1.4196 2.77574 1.27306 3.14423 1.27273H8.63796C9.00635 1.27323 9.3595 1.41984 9.61993 1.68039C9.88036 1.94094 10.0268 2.29416 10.0271 2.66255V3.18182H5.5726C5.40382 3.18182 5.24196 3.24886 5.12262 3.3682C5.00328 3.48755 4.93623 3.64941 4.93623 3.81818C4.93623 3.98696 5.00328 4.14882 5.12262 4.26816C5.24196 4.3875 5.40382 4.45455 5.5726 4.45455H11.8191C12.1876 4.45488 12.541 4.60142 12.8015 4.86199C13.0621 5.12255 13.2086 5.47586 13.209 5.84436V11.3375Z" fill="#ADB4C3"/>
<path d="M11.3126 7.63636H11.3062C11.1377 7.63721 10.9765 7.70484 10.8578 7.82443C10.7391 7.94403 10.6726 8.10581 10.6731 8.27431C10.6735 8.44281 10.7407 8.60426 10.86 8.72326C10.9793 8.84226 11.1409 8.90908 11.3094 8.90908C11.4779 8.90908 11.6395 8.84226 11.7588 8.72326C11.8781 8.60426 11.9454 8.44281 11.9458 8.27431C11.9462 8.10581 11.8798 7.94403 11.7611 7.82443C11.6424 7.70484 11.4811 7.63721 11.3126 7.63636Z" fill="#ADB4C3"/>
</svg>
