<svg width="0" height="0" class="hidden">
  <symbol fill="none" xmlns="http://www.w3.org/2000/svg" viewBox="0 0 20 16" id="filter-icor">
    <path d="M13.536 8H1m12.536 0a1.286 1.286 0 102.571 0m-2.571 0a1.286 1.286 0 112.571 0M19 8h-2.893M19 13.143H6.464m0 0a1.286 1.286 0 10-2.571 0m2.571 0a1.286 1.286 0 01-2.571 0m0 0H1M19 2.857H9.679m0 0a1.286 1.286 0 10-2.572 0m2.572 0a1.286 1.286 0 11-2.572 0m0 0H1" stroke="#4D30FF" stroke-width="1.25" stroke-linecap="round" stroke-linejoin="round"></path>
  </symbol>
</svg>